<?xml version="1.0" encoding="UTF-8" standalone="no"?>
<svg width="12px" height="40px" viewBox="0 0 12 40" version="1.1" xmlns="http://www.w3.org/2000/svg" xmlns:xlink="http://www.w3.org/1999/xlink" xmlns:sketch="http://www.bohemiancoding.com/sketch/ns">
    <title>check2</title>
    <description>Created with Sketch (http://www.bohemiancoding.com/sketch)</description>
    <defs></defs>
    <g id="Page-1" stroke="none" stroke-width="1" fill="none" fill-rule="evenodd" sketch:type="MSPage">
        <g id="Path-+-Path" sketch:type="MSLayerGroup" transform="translate(0.000000, 1.000000)">
            <path d="M11.1353907,30.3067791 C10.6256844,29.7961055 9.7964161,29.7961055 9.2877053,30.3067791 L4.62269786,34.9715286 L2.63862618,33.2852107 C2.08909905,32.8173421 1.26381284,32.8850337 0.79591837,33.433535 C0.32901941,33.9830317 0.39472374,34.8072768 0.94524639,35.2751454 L3.84718766,37.7429034 C4.09308113,37.9529466 4.39372822,38.0554795 4.69437531,38.0554795 C5.02887008,38.0554795 5.36436038,37.926069 5.6172225,37.67123 L11.1353907,32.1553578 C11.6450971,31.6446842 11.6450971,30.8164573 11.1353907,30.3067791 L11.1353907,30.3067791 L11.1353907,30.3067791 Z" id="Path" fill="#CC0000" sketch:type="MSShapeGroup"></path>
            <path d="M11.1353907,0.27577912 C10.6256844,-0.23489448 9.7964161,-0.23489448 9.2877053,0.27577912 L4.62269786,4.94052859 L2.63862618,3.25421071 C2.08909905,2.78634211 1.26381284,2.85403374 0.79591837,3.40253501 C0.32901941,3.95203174 0.39472374,4.77627685 0.94524639,5.2441454 L3.84718766,7.7119034 C4.09308113,7.9219466 4.39372822,8.0244795 4.69437531,8.0244795 C5.02887008,8.0244795 5.36436038,7.895069 5.6172225,7.64023 L11.1353907,2.12435781 C11.6450971,1.61368422 11.6450971,0.78545725 11.1353907,0.27577912 L11.1353907,0.27577912 L11.1353907,0.27577912 Z" id="Path" fill="#DDDDDD" sketch:type="MSShapeGroup"></path>
        </g>
    </g>
</svg>