<?xml version="1.0" encoding="UTF-8" standalone="no"?>
<svg width="15px" height="59px" viewBox="0 0 15 59" version="1.1" xmlns="http://www.w3.org/2000/svg" xmlns:xlink="http://www.w3.org/1999/xlink" xmlns:sketch="http://www.bohemiancoding.com/sketch/ns">
    <title>trash</title>
    <description>Created with Sketch (http://www.bohemiancoding.com/sketch)</description>
    <defs></defs>
    <g id="final?" stroke="none" stroke-width="1" fill="none" fill-rule="evenodd" sketch:type="MSPage">
        <g id="Imported-Layers" sketch:type="MSLayerGroup" transform="translate(0.000000, 39.000000)" fill="#CDCDCD">
            <path d="M4.7859375,2.29568182 L0.31875,2.29568182 L0.31875,4.50927273 L14.7215625,4.50927273 L14.7215625,2.29568182 L10.2534375,2.29568182 L10.2534375,1.85086364 C10.2534375,1.32395455 9.834375,0.896318182 9.316875,0.896318182 L5.7234375,0.896318182 C5.2059375,0.896318182 4.7859375,1.32395455 4.7859375,1.85086364 L4.7859375,2.29568182 Z M13.90125,5.44472727 L13.90125,19.1014091 C13.90125,19.6283182 13.48125,20.0559545 12.96375,20.0559545 L2.0746875,20.0559545 C1.5571875,20.0559545 1.1371875,19.6283182 1.1371875,19.1014091 L1.1371875,5.44472727 L13.90125,5.44472727 Z M4.355625,7.71940909 C3.9675,7.71940909 3.6525,8.04013636 3.6525,8.43531818 L3.6525,17.1741818 C3.6525,17.5693636 3.9675,17.8900909 4.355625,17.8900909 C4.7446875,17.8900909 5.05875,17.5693636 5.05875,17.1741818 L5.05875,8.43531818 C5.05875,8.04013636 4.7446875,7.71940909 4.355625,7.71940909 Z M7.5196875,7.71940909 C7.1315625,7.71940909 6.8165625,8.04013636 6.8165625,8.43531818 L6.8165625,17.1741818 C6.8165625,17.5693636 7.1315625,17.8900909 7.5196875,17.8900909 C7.90875,17.8900909 8.2228125,17.5693636 8.2228125,17.1741818 L8.2228125,8.43531818 C8.2228125,8.04013636 7.90875,7.71940909 7.5196875,7.71940909 Z M10.68375,7.71940909 C10.295625,7.71940909 9.980625,8.04013636 9.980625,8.43531818 L9.980625,17.1741818 C9.980625,17.5693636 10.295625,17.8900909 10.68375,17.8900909 C11.0728125,17.8900909 11.386875,17.5693636 11.386875,17.1741818 L11.386875,8.43531818 C11.386875,8.04013636 11.0728125,7.71940909 10.68375,7.71940909 Z M10.68375,7.71940909" id="Fill-1" sketch:type="MSShapeGroup"></path>
        </g>
        <g id="Imported-Layers" sketch:type="MSLayerGroup" transform="translate(0.000000, -1.000000)" fill="#CC0000">
            <path d="M4.7859375,2.29568182 L0.31875,2.29568182 L0.31875,4.50927273 L14.7215625,4.50927273 L14.7215625,2.29568182 L10.2534375,2.29568182 L10.2534375,1.85086364 C10.2534375,1.32395455 9.834375,0.896318182 9.316875,0.896318182 L5.7234375,0.896318182 C5.2059375,0.896318182 4.7859375,1.32395455 4.7859375,1.85086364 L4.7859375,2.29568182 Z M13.90125,5.44472727 L13.90125,19.1014091 C13.90125,19.6283182 13.48125,20.0559545 12.96375,20.0559545 L2.0746875,20.0559545 C1.5571875,20.0559545 1.1371875,19.6283182 1.1371875,19.1014091 L1.1371875,5.44472727 L13.90125,5.44472727 Z M4.355625,7.71940909 C3.9675,7.71940909 3.6525,8.04013636 3.6525,8.43531818 L3.6525,17.1741818 C3.6525,17.5693636 3.9675,17.8900909 4.355625,17.8900909 C4.7446875,17.8900909 5.05875,17.5693636 5.05875,17.1741818 L5.05875,8.43531818 C5.05875,8.04013636 4.7446875,7.71940909 4.355625,7.71940909 Z M7.5196875,7.71940909 C7.1315625,7.71940909 6.8165625,8.04013636 6.8165625,8.43531818 L6.8165625,17.1741818 C6.8165625,17.5693636 7.1315625,17.8900909 7.5196875,17.8900909 C7.90875,17.8900909 8.2228125,17.5693636 8.2228125,17.1741818 L8.2228125,8.43531818 C8.2228125,8.04013636 7.90875,7.71940909 7.5196875,7.71940909 Z M10.68375,7.71940909 C10.295625,7.71940909 9.980625,8.04013636 9.980625,8.43531818 L9.980625,17.1741818 C9.980625,17.5693636 10.295625,17.8900909 10.68375,17.8900909 C11.0728125,17.8900909 11.386875,17.5693636 11.386875,17.1741818 L11.386875,8.43531818 C11.386875,8.04013636 11.0728125,7.71940909 10.68375,7.71940909 Z M10.68375,7.71940909" id="Fill-1" sketch:type="MSShapeGroup"></path>
        </g>
    </g>
</svg>